{"title":"Walk Hard The Dewey Cox Story 2007 DVDRip XviD-brydon10","uid":5205037,"size":734461150,"categoryP":"video","categoryS":"movies","magnet":"?xt=urn:btih:0f30833b674f99f957c8af72c5451f4823c1e5ff&amp;dn=Walk+Hard+The+Dewey+Cox+Story+2007+DVDRip+XviD-brydon10&amp;tr=udp%3A%2F%2Ftracker.openbittorrent.com%3A80&amp;tr=udp%3A%2F%2Fopen.demonii.com%3A1337&amp;tr=udp%3A%2F%2Ftracker.coppersurfer.tk%3A6969&amp;tr=udp%3A%2F%2Fexodus.desync.com%3A6969","seeders":0,"leechers":0,"uploader":"brydon100","files":-1,"time":1260340471,"description":"Walk Hard: The Dewey Cox Story (2007)\n\nThe up-and-down-and-up-again story of musician Dewey Cox, whose songs would change a nation. On his rock 'n roll spiral, Cox sleeps with 411 women, marries three times, has 22 kids and 14 step-kids, stars in his own 70s TV show, collects friends ranging from Elvis to the Beatles to a chimp, and gets addicted to - and then kicks - every drug known to man; but despite it all, Cox grows into a national icon and eventually earns the love of a good woman - longtime backup singer Darlene.\n\nVideo\nID                               : 0\nFormat                           : MPEG-4 Visual\nFormat profile                   : AdvancedSimple@L5\nFormat settings, BVOP            : Yes\nFormat settings, QPel            : No\nFormat settings, GMC             : No warppoints\nFormat settings, Matrix          : Custom\nCodec ID                         : XVID\nCodec ID/Hint                    : XviD\nDuration                         : 2h 0mn\nBit rate                         : 690 Kbps\nWidth                            : 720 pixels\nHeight                           : 304 pixels\nDisplay aspect ratio             : 2.35:1\nFrame rate                       : 23.976 fps\nResolution                       : 24 bits\nColorimetry                      : 4:2:0\nScan type                        : Progressive\nBits/(Pixel*Frame)               : 0.131\nStream size                      : 594 MiB (85%)\nWriting library                  : XviD 1.2.1 (UTC 2008-12-04)\n\nAudio\nID                               : 1\nFormat                           : MPEG Audio\nFormat version                   : Version 1\nFormat profile                   : Layer 3\nFormat_Settings_Mode             : Joint stereo / MS Stereo\nCodec ID                         : 55\nCodec ID/Hint                    : MP3\nDuration                         : 2h 0mn\nBit rate mode                    : Variable\nBit rate                         : 111 Kbps\nNominal bit rate                 : 128 Kbps\nChannel(s)                       : 2 channels\nSampling rate                    : 48.0 KHz\nResolution                       : 16 bits\nStream size                      : 95.7 MiB (14%)\nAlignment                        : Aligned on interleaves\nInterleave, duration             : 24 ms (0.58 video frame)\nInterleave, preload duration     : 165 ms\nWriting library                  : LAME3.98r\nEncoding settings                : -m j -V 4 -q 2 -lowpass 17 --abr 128\nLanguage                         : English\n\n","torrent":{"xt":"urn:btih:0f30833b674f99f957c8af72c5451f4823c1e5ff","amp;dn":"Walk+Hard+The+Dewey+Cox+Story+2007+DVDRip+XviD-brydon10","amp;tr":["udp%3A%2F%2Ftracker.openbittorrent.com%3A80","udp%3A%2F%2Fopen.demonii.com%3A1337","udp%3A%2F%2Ftracker.coppersurfer.tk%3A6969","udp%3A%2F%2Fexodus.desync.com%3A6969"],"infoHash":"0f30833b674f99f957c8af72c5451f4823c1e5ff","infoHashBuffer":{"type":"Buffer","data":[15,48,131,59,103,79,153,249,87,200,175,114,197,69,31,72,35,193,229,255]},"announce":[],"urlList":[]}}